<?xml version="1.0" encoding="iso-8859-1"?>
<!-- Generator: Adobe Illustrator 19.0.0, SVG Export Plug-In . SVG Version: 6.00 Build 0)  -->
<svg xmlns="http://www.w3.org/2000/svg" xmlns:xlink="http://www.w3.org/1999/xlink" version="1.1" id="Capa_1" x="0px" y="0px" viewBox="0 0 511.985 511.985" style="enable-background:new 0 0 511.985 511.985;" xml:space="preserve" width="512px" height="512px">
<g>
	<g>
		<path d="M254.571,298.744l-67.008-117.248c-5.717-10.048-16.064-16.085-27.627-16.128c-0.043,0-0.107,0-0.149,0    c-11.52,0-21.845,5.909-27.648,15.872L1.451,405.326c-2.965,5.099-1.237,11.627,3.84,14.592c1.685,1.003,3.541,1.451,5.355,1.451    c3.648,0,7.232-1.899,9.216-5.291l130.731-224.085c2.752-4.779,7.317-5.291,9.195-5.291c2.347,0.555,6.485,0.491,9.259,5.376    l67.008,117.248c2.901,5.099,9.408,6.848,14.549,3.989C255.723,310.371,257.493,303.843,254.571,298.744z" fill="#FFFFFF"/>
	</g>
</g>
<g>
	<g>
		<path d="M511.083,406.435L381.291,109.774c-5.184-11.819-16.405-19.157-29.312-19.157s-24.128,7.317-29.312,19.157    L192.875,406.435c-2.368,5.397,0.107,11.691,5.504,14.037c5.355,2.304,11.691-0.128,14.037-5.504l129.792-296.661    c2.603-5.931,8.128-6.379,9.771-6.379c1.643,0,7.168,0.469,9.771,6.379l129.792,296.661c1.749,4.011,5.653,6.4,9.771,6.4    c1.429,0,2.88-0.299,4.267-0.896C510.997,418.126,513.451,411.832,511.083,406.435z" fill="#FFFFFF"/>
	</g>
</g>
<g>
	<g>
		<path d="M219.733,248.526c-6.208,0.171-10.667,4.736-10.731,10.581c0,0.107-0.405,12.928-6.357,12.928    c-3.883,0-5.483-1.685-10.091-10.603c-4.416-8.512-11.051-21.397-27.691-21.397c-8.917,0-14.571,4.16-18.688,7.211    c-3.349,2.453-4.821,3.456-6.912,3.52c-3.371-0.981-12.16-10.645-18.069-19.904c-3.179-4.949-9.771-6.421-14.72-3.264    c-4.971,3.157-6.421,9.771-3.264,14.72c5.675,8.939,20.523,29.717,35.435,29.717c9.835,0,16.064-4.587,20.16-7.616    c3.136-2.304,4.288-3.051,6.059-3.051c2.923,0,4.245,1.173,8.747,9.856c4.565,8.832,11.435,22.144,29.035,22.144    c19.029,0,27.691-17.728,27.691-34.197C230.336,253.304,225.6,248.568,219.733,248.526z" fill="#FFFFFF"/>
	</g>
</g>
<g>
	<g>
		<path d="M418.731,210.19c-4.779-0.853-11.968-2.155-23.488-2.155c-14.464,0-24.32,5.419-33.835,10.645    c-10.005,5.504-19.456,10.688-36.181,10.688c-4.843,0-8.405-3.968-14.827-12.416c-3.797-4.928-8.064-10.539-13.653-14.848    c-4.672-3.563-11.392-2.709-14.955,1.963c-3.584,4.672-2.731,11.349,1.941,14.955c3.371,2.581,6.443,6.635,9.707,10.901    c7.061,9.259,15.851,20.779,31.787,20.779c22.187,0,35.648-7.403,46.464-13.333c8.128-4.459,14.571-8,23.552-8    c9.621,0,15.211,1.003,21.227,2.069c5.675,1.067,10.581-2.965,11.605-8.768S424.512,211.214,418.731,210.19z" fill="#FFFFFF"/>
	</g>
</g>
<g>
</g>
<g>
</g>
<g>
</g>
<g>
</g>
<g>
</g>
<g>
</g>
<g>
</g>
<g>
</g>
<g>
</g>
<g>
</g>
<g>
</g>
<g>
</g>
<g>
</g>
<g>
</g>
<g>
</g>
</svg>
